<svg xmlns="http://www.w3.org/2000/svg" xmlns:xlink="http://www.w3.org/1999/xlink" width="500" zoomAndPan="magnify" viewBox="0 0 375 374.999991" height="500" preserveAspectRatio="xMidYMid meet" version="1.0"><defs><g/><clipPath id="aed6370f69"><path d="M 59.988281 163.734375 L 315 163.734375 L 315 213.289062 L 59.988281 213.289062 Z M 59.988281 163.734375 " clip-rule="nonzero"/></clipPath><clipPath id="2050e7d68d"><path d="M 71.238281 163.734375 L 303.761719 163.734375 C 306.746094 163.734375 309.609375 164.917969 311.71875 167.03125 C 313.828125 169.140625 315.011719 172 315.011719 174.984375 L 315.011719 202.039062 C 315.011719 205.023438 313.828125 207.886719 311.71875 209.996094 C 309.609375 212.105469 306.746094 213.289062 303.761719 213.289062 L 71.238281 213.289062 C 68.253906 213.289062 65.390625 212.105469 63.28125 209.996094 C 61.171875 207.886719 59.988281 205.023438 59.988281 202.039062 L 59.988281 174.984375 C 59.988281 172 61.171875 169.140625 63.28125 167.03125 C 65.390625 164.917969 68.253906 163.734375 71.238281 163.734375 Z M 71.238281 163.734375 " clip-rule="nonzero"/></clipPath><clipPath id="4f702a602b"><path d="M 178.320312 171.414062 L 307.355469 171.414062 L 307.355469 206.351562 L 178.320312 206.351562 Z M 178.320312 171.414062 " clip-rule="nonzero"/></clipPath></defs><g clip-path="url(#aed6370f69)"><g clip-path="url(#2050e7d68d)"><path fill="#6366f1" d="M 59.988281 163.734375 L 314.925781 163.734375 L 314.925781 213.289062 L 59.988281 213.289062 Z M 59.988281 163.734375 " fill-opacity="1" fill-rule="nonzero"/></g></g><g fill="#2b2b2b" fill-opacity="0.4"><g transform="translate(72.327447, 204.883585)"><g><path d="M 46.015625 -20.5 L 47.25 -20.140625 C 47.207031 -20.015625 47.164062 -19.867188 47.125 -19.703125 C 47.082031 -19.535156 46.957031 -19.179688 46.75 -18.640625 C 46.550781 -18.109375 46.304688 -17.644531 46.015625 -17.25 C 45.722656 -16.863281 45.316406 -16.394531 44.796875 -15.84375 C 44.285156 -15.289062 43.703125 -14.898438 43.046875 -14.671875 C 42.390625 -14.441406 41.597656 -14.234375 40.671875 -14.046875 C 39.742188 -13.867188 38.703125 -13.941406 37.546875 -14.265625 C 37.265625 -12.410156 36.914062 -10.867188 36.5 -9.640625 C 35.96875 -7.992188 35.375 -6.632812 34.71875 -5.5625 C 34.050781 -4.40625 33.265625 -3.375 32.359375 -2.46875 C 31.828125 -1.851562 31.191406 -1.296875 30.453125 -0.796875 C 29.296875 0.0234375 27.914062 0.660156 26.3125 1.109375 C 25.113281 1.398438 24.039062 1.273438 23.09375 0.734375 C 22.15625 0.203125 21.382812 -0.65625 20.78125 -1.84375 C 20.1875 -3.039062 19.703125 -4.304688 19.328125 -5.640625 C 18.960938 -6.984375 18.65625 -8.539062 18.40625 -10.3125 C 16.144531 -4.71875 12.457031 -1.609375 7.34375 -0.984375 C 5.53125 -0.742188 4.109375 -1.289062 3.078125 -2.625 C 2.054688 -3.957031 1.421875 -5.765625 1.171875 -8.046875 C 0.921875 -10.335938 0.785156 -12.675781 0.765625 -15.0625 C 0.742188 -17.457031 0.703125 -19.804688 0.640625 -22.109375 C 0.585938 -24.421875 0.375 -26.03125 0 -26.9375 C 0.125 -26.96875 0.304688 -27.023438 0.546875 -27.109375 C 0.796875 -27.191406 1.28125 -27.285156 2 -27.390625 C 2.726562 -27.492188 3.421875 -27.546875 4.078125 -27.546875 C 4.734375 -27.546875 5.460938 -27.429688 6.265625 -27.203125 C 7.066406 -26.984375 7.765625 -26.625 8.359375 -26.125 C 8.960938 -25.632812 9.476562 -24.894531 9.90625 -23.90625 C 10.34375 -22.914062 10.601562 -21.722656 10.6875 -20.328125 C 10.726562 -19.128906 10.789062 -17.457031 10.875 -15.3125 C 11 -10.539062 11.285156 -7.863281 11.734375 -7.28125 C 12.234375 -6.664062 13.140625 -7.347656 14.453125 -9.328125 C 15.929688 -11.585938 17.039062 -13.894531 17.78125 -16.25 C 17.539062 -18.925781 17.378906 -20.507812 17.296875 -21 C 17.546875 -21.125 17.863281 -21.257812 18.25 -21.40625 C 18.644531 -21.550781 19.351562 -21.703125 20.375 -21.859375 C 21.40625 -22.023438 22.34375 -22.015625 23.1875 -21.828125 C 24.03125 -21.648438 24.863281 -21.097656 25.6875 -20.171875 C 26.519531 -19.242188 27.054688 -17.9375 27.296875 -16.25 C 28.078125 -11.101562 28.835938 -7.625 29.578125 -5.8125 C 30.117188 -6.257812 30.675781 -6.914062 31.25 -7.78125 C 31.875 -8.644531 32.429688 -9.695312 32.921875 -10.9375 C 33.453125 -12.375 33.820312 -13.691406 34.03125 -14.890625 C 34.03125 -14.929688 34.039062 -15.007812 34.0625 -15.125 C 34.082031 -15.25 34.113281 -15.332031 34.15625 -15.375 C 33.125 -15.875 32.425781 -16.222656 32.0625 -16.421875 C 31.28125 -16.835938 30.617188 -17.289062 30.078125 -17.78125 C 29.335938 -18.445312 28.800781 -19.171875 28.46875 -19.953125 C 28.269531 -20.398438 28.128906 -20.914062 28.046875 -21.5 C 28.003906 -21.945312 28.046875 -22.476562 28.171875 -23.09375 C 28.492188 -24.207031 29.128906 -25.070312 30.078125 -25.6875 C 31.023438 -26.4375 32.078125 -26.75 33.234375 -26.625 C 33.847656 -26.625 34.421875 -26.457031 34.953125 -26.125 C 35.453125 -25.914062 35.925781 -25.546875 36.375 -25.015625 C 36.664062 -24.597656 36.957031 -24.125 37.25 -23.59375 C 37.375 -23.257812 37.515625 -22.765625 37.671875 -22.109375 C 37.796875 -21.617188 37.859375 -21.144531 37.859375 -20.6875 C 37.898438 -20.519531 37.921875 -20.273438 37.921875 -19.953125 L 37.921875 -19.328125 C 37.921875 -18.179688 37.859375 -17.050781 37.734375 -15.9375 C 37.898438 -15.894531 38.132812 -15.851562 38.4375 -15.8125 C 38.75 -15.769531 39.328125 -15.757812 40.171875 -15.78125 C 41.015625 -15.800781 41.773438 -15.929688 42.453125 -16.171875 C 43.140625 -16.421875 43.832031 -16.914062 44.53125 -17.65625 C 45.226562 -18.40625 45.722656 -19.351562 46.015625 -20.5 Z M 34.71875 -20.015625 L 34.71875 -20.5 C 34.71875 -20.957031 34.695312 -21.3125 34.65625 -21.5625 C 34.488281 -22.300781 34.300781 -22.832031 34.09375 -23.15625 C 33.757812 -23.613281 33.390625 -23.863281 32.984375 -23.90625 C 32.484375 -23.988281 31.988281 -23.863281 31.5 -23.53125 C 31.050781 -23.28125 30.722656 -22.890625 30.515625 -22.359375 C 30.390625 -21.867188 30.410156 -21.375 30.578125 -20.875 C 30.742188 -20.425781 31.070312 -19.910156 31.5625 -19.328125 C 32.21875 -18.753906 32.734375 -18.34375 33.109375 -18.09375 L 34.46875 -17.296875 C 34.46875 -17.335938 34.5 -17.632812 34.5625 -18.1875 C 34.625 -18.75 34.65625 -19.171875 34.65625 -19.453125 C 34.695312 -19.535156 34.71875 -19.722656 34.71875 -20.015625 Z M 34.71875 -20.015625 "/></g></g></g><g fill="#2b2b2b" fill-opacity="0.4"><g transform="translate(110.799647, 204.883585)"><g><path d="M 30.890625 -21.1875 L 31.625 -19.890625 C 31.414062 -19.722656 31.128906 -19.515625 30.765625 -19.265625 C 30.722656 -19.222656 30.640625 -19.171875 30.515625 -19.109375 C 30.390625 -19.054688 30.304688 -19.007812 30.265625 -18.96875 L 29.703125 -18.59375 C 29.660156 -18.550781 29.566406 -18.488281 29.421875 -18.40625 C 29.285156 -18.320312 29.175781 -18.257812 29.09375 -18.21875 C 29.007812 -18.175781 28.882812 -18.09375 28.71875 -17.96875 C 28.550781 -17.84375 28.425781 -17.765625 28.34375 -17.734375 C 27.894531 -17.523438 27.628906 -17.378906 27.546875 -17.296875 C 27.460938 -17.210938 27.316406 -17.117188 27.109375 -17.015625 C 26.910156 -16.910156 26.769531 -16.835938 26.6875 -16.796875 C 26.644531 -16.753906 26.570312 -16.703125 26.46875 -16.640625 C 26.363281 -16.578125 26.289062 -16.546875 26.25 -16.546875 C 26.082031 -16.460938 26 -16.421875 26 -16.421875 C 25.957031 -16.421875 25.914062 -16.398438 25.875 -16.359375 C 25.832031 -16.328125 25.789062 -16.3125 25.75 -16.3125 C 25.59375 -16.269531 25.429688 -16.1875 25.265625 -16.0625 C 25.097656 -16.019531 24.929688 -15.9375 24.765625 -15.8125 C 24.316406 -15.601562 23.597656 -15.296875 22.609375 -14.890625 C 21.992188 -14.640625 21.234375 -14.367188 20.328125 -14.078125 C 20.203125 -14.035156 20.023438 -13.984375 19.796875 -13.921875 C 19.566406 -13.859375 19.410156 -13.828125 19.328125 -13.828125 C 19.203125 -13.085938 19.019531 -12.347656 18.78125 -11.609375 C 17.75 -8.398438 16 -5.941406 13.53125 -4.234375 C 11.0625 -2.523438 8.566406 -2.0625 6.046875 -2.84375 C 3.535156 -3.625 1.765625 -5.425781 0.734375 -8.25 C -0.285156 -11.070312 -0.285156 -14.109375 0.734375 -17.359375 C 1.765625 -20.566406 3.515625 -23.023438 5.984375 -24.734375 C 8.460938 -26.441406 10.957031 -26.90625 13.46875 -26.125 C 15.15625 -25.59375 16.53125 -24.507812 17.59375 -22.875 C 18.664062 -21.25 19.285156 -19.367188 19.453125 -17.234375 L 19.640625 -17.234375 C 20.671875 -17.441406 21.367188 -17.585938 21.734375 -17.671875 C 22.066406 -17.710938 22.75 -17.894531 23.78125 -18.21875 C 24.03125 -18.300781 24.195312 -18.363281 24.28125 -18.40625 C 24.519531 -18.488281 24.679688 -18.53125 24.765625 -18.53125 C 24.929688 -18.613281 25.015625 -18.65625 25.015625 -18.65625 C 25.054688 -18.65625 25.097656 -18.664062 25.140625 -18.6875 C 25.179688 -18.707031 25.222656 -18.71875 25.265625 -18.71875 C 25.304688 -18.757812 25.375 -18.800781 25.46875 -18.84375 C 25.570312 -18.882812 25.644531 -18.90625 25.6875 -18.90625 L 26.625 -19.265625 C 26.863281 -19.347656 27.128906 -19.453125 27.421875 -19.578125 C 27.753906 -19.742188 28.003906 -19.847656 28.171875 -19.890625 C 28.492188 -20.054688 28.71875 -20.160156 28.84375 -20.203125 C 28.882812 -20.242188 28.976562 -20.289062 29.125 -20.34375 C 29.269531 -20.40625 29.363281 -20.457031 29.40625 -20.5 L 29.953125 -20.6875 Z M 15.3125 -19.890625 C 14.53125 -20.140625 13.644531 -19.890625 12.65625 -19.140625 C 12.738281 -18.984375 12.90625 -18.78125 13.15625 -18.53125 C 13.488281 -18.195312 13.835938 -17.945312 14.203125 -17.78125 C 14.410156 -17.625 14.640625 -17.523438 14.890625 -17.484375 C 15.378906 -17.359375 15.644531 -17.296875 15.6875 -17.296875 C 16.175781 -17.171875 16.671875 -17.109375 17.171875 -17.109375 C 16.878906 -18.671875 16.257812 -19.597656 15.3125 -19.890625 Z M 10.75 -5.5625 C 11.78125 -5.226562 12.867188 -5.644531 14.015625 -6.8125 C 15.171875 -7.988281 16.054688 -9.566406 16.671875 -11.546875 C 16.835938 -12.046875 17.003906 -12.707031 17.171875 -13.53125 C 16.347656 -13.445312 15.707031 -13.425781 15.25 -13.46875 C 15.164062 -13.46875 15.03125 -13.476562 14.84375 -13.5 C 14.664062 -13.519531 14.503906 -13.539062 14.359375 -13.5625 C 14.210938 -13.582031 14.078125 -13.613281 13.953125 -13.65625 C 13.671875 -13.695312 13.238281 -13.796875 12.65625 -13.953125 C 11.957031 -14.160156 11.238281 -14.535156 10.5 -15.078125 C 10.25 -15.234375 10.082031 -15.351562 10 -15.4375 C 9.914062 -15.226562 9.710938 -14.710938 9.390625 -13.890625 C 8.773438 -11.921875 8.597656 -10.117188 8.859375 -8.484375 C 9.128906 -6.859375 9.757812 -5.882812 10.75 -5.5625 Z M 10.75 -5.5625 "/></g></g></g><g fill="#2b2b2b" fill-opacity="0.4"><g transform="translate(131.36315, 204.883585)"><g><path d="M 30.890625 -21.1875 L 31.625 -19.890625 C 31.414062 -19.722656 31.128906 -19.515625 30.765625 -19.265625 C 30.722656 -19.222656 30.640625 -19.171875 30.515625 -19.109375 C 30.390625 -19.054688 30.304688 -19.007812 30.265625 -18.96875 L 29.703125 -18.59375 C 29.660156 -18.550781 29.566406 -18.488281 29.421875 -18.40625 C 29.285156 -18.320312 29.175781 -18.257812 29.09375 -18.21875 C 29.007812 -18.175781 28.882812 -18.09375 28.71875 -17.96875 C 28.550781 -17.84375 28.425781 -17.765625 28.34375 -17.734375 C 27.894531 -17.523438 27.628906 -17.378906 27.546875 -17.296875 C 27.460938 -17.210938 27.316406 -17.117188 27.109375 -17.015625 C 26.910156 -16.910156 26.769531 -16.835938 26.6875 -16.796875 C 26.644531 -16.753906 26.570312 -16.703125 26.46875 -16.640625 C 26.363281 -16.578125 26.289062 -16.546875 26.25 -16.546875 C 26.082031 -16.460938 26 -16.421875 26 -16.421875 C 25.957031 -16.421875 25.914062 -16.398438 25.875 -16.359375 C 25.832031 -16.328125 25.789062 -16.3125 25.75 -16.3125 C 25.59375 -16.269531 25.429688 -16.1875 25.265625 -16.0625 C 25.097656 -16.019531 24.929688 -15.9375 24.765625 -15.8125 C 24.316406 -15.601562 23.597656 -15.296875 22.609375 -14.890625 C 21.992188 -14.640625 21.234375 -14.367188 20.328125 -14.078125 C 20.203125 -14.035156 20.023438 -13.984375 19.796875 -13.921875 C 19.566406 -13.859375 19.410156 -13.828125 19.328125 -13.828125 C 19.203125 -13.085938 19.019531 -12.347656 18.78125 -11.609375 C 17.75 -8.398438 16 -5.941406 13.53125 -4.234375 C 11.0625 -2.523438 8.566406 -2.0625 6.046875 -2.84375 C 3.535156 -3.625 1.765625 -5.425781 0.734375 -8.25 C -0.285156 -11.070312 -0.285156 -14.109375 0.734375 -17.359375 C 1.765625 -20.566406 3.515625 -23.023438 5.984375 -24.734375 C 8.460938 -26.441406 10.957031 -26.90625 13.46875 -26.125 C 15.15625 -25.59375 16.53125 -24.507812 17.59375 -22.875 C 18.664062 -21.25 19.285156 -19.367188 19.453125 -17.234375 L 19.640625 -17.234375 C 20.671875 -17.441406 21.367188 -17.585938 21.734375 -17.671875 C 22.066406 -17.710938 22.75 -17.894531 23.78125 -18.21875 C 24.03125 -18.300781 24.195312 -18.363281 24.28125 -18.40625 C 24.519531 -18.488281 24.679688 -18.53125 24.765625 -18.53125 C 24.929688 -18.613281 25.015625 -18.65625 25.015625 -18.65625 C 25.054688 -18.65625 25.097656 -18.664062 25.140625 -18.6875 C 25.179688 -18.707031 25.222656 -18.71875 25.265625 -18.71875 C 25.304688 -18.757812 25.375 -18.800781 25.46875 -18.84375 C 25.570312 -18.882812 25.644531 -18.90625 25.6875 -18.90625 L 26.625 -19.265625 C 26.863281 -19.347656 27.128906 -19.453125 27.421875 -19.578125 C 27.753906 -19.742188 28.003906 -19.847656 28.171875 -19.890625 C 28.492188 -20.054688 28.71875 -20.160156 28.84375 -20.203125 C 28.882812 -20.242188 28.976562 -20.289062 29.125 -20.34375 C 29.269531 -20.40625 29.363281 -20.457031 29.40625 -20.5 L 29.953125 -20.6875 Z M 15.3125 -19.890625 C 14.53125 -20.140625 13.644531 -19.890625 12.65625 -19.140625 C 12.738281 -18.984375 12.90625 -18.78125 13.15625 -18.53125 C 13.488281 -18.195312 13.835938 -17.945312 14.203125 -17.78125 C 14.410156 -17.625 14.640625 -17.523438 14.890625 -17.484375 C 15.378906 -17.359375 15.644531 -17.296875 15.6875 -17.296875 C 16.175781 -17.171875 16.671875 -17.109375 17.171875 -17.109375 C 16.878906 -18.671875 16.257812 -19.597656 15.3125 -19.890625 Z M 10.75 -5.5625 C 11.78125 -5.226562 12.867188 -5.644531 14.015625 -6.8125 C 15.171875 -7.988281 16.054688 -9.566406 16.671875 -11.546875 C 16.835938 -12.046875 17.003906 -12.707031 17.171875 -13.53125 C 16.347656 -13.445312 15.707031 -13.425781 15.25 -13.46875 C 15.164062 -13.46875 15.03125 -13.476562 14.84375 -13.5 C 14.664062 -13.519531 14.503906 -13.539062 14.359375 -13.5625 C 14.210938 -13.582031 14.078125 -13.613281 13.953125 -13.65625 C 13.671875 -13.695312 13.238281 -13.796875 12.65625 -13.953125 C 11.957031 -14.160156 11.238281 -14.535156 10.5 -15.078125 C 10.25 -15.234375 10.082031 -15.351562 10 -15.4375 C 9.914062 -15.226562 9.710938 -14.710938 9.390625 -13.890625 C 8.773438 -11.921875 8.597656 -10.117188 8.859375 -8.484375 C 9.128906 -6.859375 9.757812 -5.882812 10.75 -5.5625 Z M 10.75 -5.5625 "/></g></g></g><g fill="#2b2b2b" fill-opacity="0.4"><g transform="translate(151.92665, 204.883585)"><g><path d="M 24.953125 -13.59375 C 24.617188 -12.601562 23.679688 -11.726562 22.140625 -10.96875 C 20.597656 -10.207031 19.226562 -9.804688 18.03125 -9.765625 C 15.976562 -9.722656 14.488281 -10.832031 13.5625 -13.09375 C 12.632812 -15.351562 12.226562 -18.148438 12.34375 -21.484375 C 12.46875 -24.828125 12.675781 -28.367188 12.96875 -32.109375 C 13.257812 -35.859375 13.597656 -39.1875 13.984375 -42.09375 C 14.378906 -45 14.367188 -47.148438 13.953125 -48.546875 C 14.117188 -48.585938 14.347656 -48.628906 14.640625 -48.671875 C 14.929688 -48.710938 15.476562 -48.753906 16.28125 -48.796875 C 17.082031 -48.835938 17.84375 -48.804688 18.5625 -48.703125 C 19.28125 -48.597656 20.070312 -48.359375 20.9375 -47.984375 C 21.800781 -47.617188 22.53125 -47.113281 23.125 -46.46875 C 23.726562 -45.832031 24.203125 -44.9375 24.546875 -43.78125 C 24.898438 -42.632812 25.015625 -41.28125 24.890625 -39.71875 C 24.804688 -38.519531 24.671875 -36.878906 24.484375 -34.796875 C 24.304688 -32.722656 24.164062 -31.046875 24.0625 -29.765625 C 23.957031 -28.492188 23.851562 -26.972656 23.75 -25.203125 C 23.644531 -23.429688 23.59375 -21.988281 23.59375 -20.875 C 23.59375 -19.757812 23.625 -18.644531 23.6875 -17.53125 C 23.75 -16.425781 23.878906 -15.539062 24.078125 -14.875 C 24.285156 -14.21875 24.578125 -13.789062 24.953125 -13.59375 Z M 13.65625 -4.390625 C 13.8125 -4.472656 14.023438 -4.570312 14.296875 -4.6875 C 14.566406 -4.8125 15.09375 -4.976562 15.875 -5.1875 C 16.65625 -5.394531 17.382812 -5.519531 18.0625 -5.5625 C 18.738281 -5.601562 19.476562 -5.488281 20.28125 -5.21875 C 21.09375 -4.945312 21.753906 -4.484375 22.265625 -3.828125 C 22.773438 -3.171875 23.164062 -2.140625 23.4375 -0.734375 C 23.707031 0.660156 23.738281 2.347656 23.53125 4.328125 C 21.757812 4.691406 20.253906 4.894531 19.015625 4.9375 C 17.785156 4.976562 16.835938 4.863281 16.171875 4.59375 C 15.515625 4.332031 15.019531 3.984375 14.6875 3.546875 C 14.363281 3.117188 14.160156 2.5625 14.078125 1.875 C 13.992188 1.195312 13.960938 0.539062 13.984375 -0.09375 C 14.003906 -0.726562 13.992188 -1.457031 13.953125 -2.28125 C 13.910156 -3.101562 13.8125 -3.804688 13.65625 -4.390625 Z M 13.65625 -4.390625 "/></g></g></g><g fill="#ffffff" fill-opacity="1"><g transform="translate(68.598673, 203.88446)"><g><path d="M 46.015625 -20.5 L 47.25 -20.140625 C 47.207031 -20.015625 47.164062 -19.867188 47.125 -19.703125 C 47.082031 -19.535156 46.957031 -19.179688 46.75 -18.640625 C 46.550781 -18.109375 46.304688 -17.644531 46.015625 -17.25 C 45.722656 -16.863281 45.316406 -16.394531 44.796875 -15.84375 C 44.285156 -15.289062 43.703125 -14.898438 43.046875 -14.671875 C 42.390625 -14.441406 41.597656 -14.234375 40.671875 -14.046875 C 39.742188 -13.867188 38.703125 -13.941406 37.546875 -14.265625 C 37.265625 -12.410156 36.914062 -10.867188 36.5 -9.640625 C 35.96875 -7.992188 35.375 -6.632812 34.71875 -5.5625 C 34.050781 -4.40625 33.265625 -3.375 32.359375 -2.46875 C 31.828125 -1.851562 31.191406 -1.296875 30.453125 -0.796875 C 29.296875 0.0234375 27.914062 0.660156 26.3125 1.109375 C 25.113281 1.398438 24.039062 1.273438 23.09375 0.734375 C 22.15625 0.203125 21.382812 -0.65625 20.78125 -1.84375 C 20.1875 -3.039062 19.703125 -4.304688 19.328125 -5.640625 C 18.960938 -6.984375 18.65625 -8.539062 18.40625 -10.3125 C 16.144531 -4.71875 12.457031 -1.609375 7.34375 -0.984375 C 5.53125 -0.742188 4.109375 -1.289062 3.078125 -2.625 C 2.054688 -3.957031 1.421875 -5.765625 1.171875 -8.046875 C 0.921875 -10.335938 0.785156 -12.675781 0.765625 -15.0625 C 0.742188 -17.457031 0.703125 -19.804688 0.640625 -22.109375 C 0.585938 -24.421875 0.375 -26.03125 0 -26.9375 C 0.125 -26.96875 0.304688 -27.023438 0.546875 -27.109375 C 0.796875 -27.191406 1.28125 -27.285156 2 -27.390625 C 2.726562 -27.492188 3.421875 -27.546875 4.078125 -27.546875 C 4.734375 -27.546875 5.460938 -27.429688 6.265625 -27.203125 C 7.066406 -26.984375 7.765625 -26.625 8.359375 -26.125 C 8.960938 -25.632812 9.476562 -24.894531 9.90625 -23.90625 C 10.34375 -22.914062 10.601562 -21.722656 10.6875 -20.328125 C 10.726562 -19.128906 10.789062 -17.457031 10.875 -15.3125 C 11 -10.539062 11.285156 -7.863281 11.734375 -7.28125 C 12.234375 -6.664062 13.140625 -7.347656 14.453125 -9.328125 C 15.929688 -11.585938 17.039062 -13.894531 17.78125 -16.25 C 17.539062 -18.925781 17.378906 -20.507812 17.296875 -21 C 17.546875 -21.125 17.863281 -21.257812 18.25 -21.40625 C 18.644531 -21.550781 19.351562 -21.703125 20.375 -21.859375 C 21.40625 -22.023438 22.34375 -22.015625 23.1875 -21.828125 C 24.03125 -21.648438 24.863281 -21.097656 25.6875 -20.171875 C 26.519531 -19.242188 27.054688 -17.9375 27.296875 -16.25 C 28.078125 -11.101562 28.835938 -7.625 29.578125 -5.8125 C 30.117188 -6.257812 30.675781 -6.914062 31.25 -7.78125 C 31.875 -8.644531 32.429688 -9.695312 32.921875 -10.9375 C 33.453125 -12.375 33.820312 -13.691406 34.03125 -14.890625 C 34.03125 -14.929688 34.039062 -15.007812 34.0625 -15.125 C 34.082031 -15.25 34.113281 -15.332031 34.15625 -15.375 C 33.125 -15.875 32.425781 -16.222656 32.0625 -16.421875 C 31.28125 -16.835938 30.617188 -17.289062 30.078125 -17.78125 C 29.335938 -18.445312 28.800781 -19.171875 28.46875 -19.953125 C 28.269531 -20.398438 28.128906 -20.914062 28.046875 -21.5 C 28.003906 -21.945312 28.046875 -22.476562 28.171875 -23.09375 C 28.492188 -24.207031 29.128906 -25.070312 30.078125 -25.6875 C 31.023438 -26.4375 32.078125 -26.75 33.234375 -26.625 C 33.847656 -26.625 34.421875 -26.457031 34.953125 -26.125 C 35.453125 -25.914062 35.925781 -25.546875 36.375 -25.015625 C 36.664062 -24.597656 36.957031 -24.125 37.25 -23.59375 C 37.375 -23.257812 37.515625 -22.765625 37.671875 -22.109375 C 37.796875 -21.617188 37.859375 -21.144531 37.859375 -20.6875 C 37.898438 -20.519531 37.921875 -20.273438 37.921875 -19.953125 L 37.921875 -19.328125 C 37.921875 -18.179688 37.859375 -17.050781 37.734375 -15.9375 C 37.898438 -15.894531 38.132812 -15.851562 38.4375 -15.8125 C 38.75 -15.769531 39.328125 -15.757812 40.171875 -15.78125 C 41.015625 -15.800781 41.773438 -15.929688 42.453125 -16.171875 C 43.140625 -16.421875 43.832031 -16.914062 44.53125 -17.65625 C 45.226562 -18.40625 45.722656 -19.351562 46.015625 -20.5 Z M 34.71875 -20.015625 L 34.71875 -20.5 C 34.71875 -20.957031 34.695312 -21.3125 34.65625 -21.5625 C 34.488281 -22.300781 34.300781 -22.832031 34.09375 -23.15625 C 33.757812 -23.613281 33.390625 -23.863281 32.984375 -23.90625 C 32.484375 -23.988281 31.988281 -23.863281 31.5 -23.53125 C 31.050781 -23.28125 30.722656 -22.890625 30.515625 -22.359375 C 30.390625 -21.867188 30.410156 -21.375 30.578125 -20.875 C 30.742188 -20.425781 31.070312 -19.910156 31.5625 -19.328125 C 32.21875 -18.753906 32.734375 -18.34375 33.109375 -18.09375 L 34.46875 -17.296875 C 34.46875 -17.335938 34.5 -17.632812 34.5625 -18.1875 C 34.625 -18.75 34.65625 -19.171875 34.65625 -19.453125 C 34.695312 -19.535156 34.71875 -19.722656 34.71875 -20.015625 Z M 34.71875 -20.015625 "/></g></g></g><g fill="#ffffff" fill-opacity="1"><g transform="translate(107.070873, 203.88446)"><g><path d="M 30.890625 -21.1875 L 31.625 -19.890625 C 31.414062 -19.722656 31.128906 -19.515625 30.765625 -19.265625 C 30.722656 -19.222656 30.640625 -19.171875 30.515625 -19.109375 C 30.390625 -19.054688 30.304688 -19.007812 30.265625 -18.96875 L 29.703125 -18.59375 C 29.660156 -18.550781 29.566406 -18.488281 29.421875 -18.40625 C 29.285156 -18.320312 29.175781 -18.257812 29.09375 -18.21875 C 29.007812 -18.175781 28.882812 -18.09375 28.71875 -17.96875 C 28.550781 -17.84375 28.425781 -17.765625 28.34375 -17.734375 C 27.894531 -17.523438 27.628906 -17.378906 27.546875 -17.296875 C 27.460938 -17.210938 27.316406 -17.117188 27.109375 -17.015625 C 26.910156 -16.910156 26.769531 -16.835938 26.6875 -16.796875 C 26.644531 -16.753906 26.570312 -16.703125 26.46875 -16.640625 C 26.363281 -16.578125 26.289062 -16.546875 26.25 -16.546875 C 26.082031 -16.460938 26 -16.421875 26 -16.421875 C 25.957031 -16.421875 25.914062 -16.398438 25.875 -16.359375 C 25.832031 -16.328125 25.789062 -16.3125 25.75 -16.3125 C 25.59375 -16.269531 25.429688 -16.1875 25.265625 -16.0625 C 25.097656 -16.019531 24.929688 -15.9375 24.765625 -15.8125 C 24.316406 -15.601562 23.597656 -15.296875 22.609375 -14.890625 C 21.992188 -14.640625 21.234375 -14.367188 20.328125 -14.078125 C 20.203125 -14.035156 20.023438 -13.984375 19.796875 -13.921875 C 19.566406 -13.859375 19.410156 -13.828125 19.328125 -13.828125 C 19.203125 -13.085938 19.019531 -12.347656 18.78125 -11.609375 C 17.75 -8.398438 16 -5.941406 13.53125 -4.234375 C 11.0625 -2.523438 8.566406 -2.0625 6.046875 -2.84375 C 3.535156 -3.625 1.765625 -5.425781 0.734375 -8.25 C -0.285156 -11.070312 -0.285156 -14.109375 0.734375 -17.359375 C 1.765625 -20.566406 3.515625 -23.023438 5.984375 -24.734375 C 8.460938 -26.441406 10.957031 -26.90625 13.46875 -26.125 C 15.15625 -25.59375 16.53125 -24.507812 17.59375 -22.875 C 18.664062 -21.25 19.285156 -19.367188 19.453125 -17.234375 L 19.640625 -17.234375 C 20.671875 -17.441406 21.367188 -17.585938 21.734375 -17.671875 C 22.066406 -17.710938 22.75 -17.894531 23.78125 -18.21875 C 24.03125 -18.300781 24.195312 -18.363281 24.28125 -18.40625 C 24.519531 -18.488281 24.679688 -18.53125 24.765625 -18.53125 C 24.929688 -18.613281 25.015625 -18.65625 25.015625 -18.65625 C 25.054688 -18.65625 25.097656 -18.664062 25.140625 -18.6875 C 25.179688 -18.707031 25.222656 -18.71875 25.265625 -18.71875 C 25.304688 -18.757812 25.375 -18.800781 25.46875 -18.84375 C 25.570312 -18.882812 25.644531 -18.90625 25.6875 -18.90625 L 26.625 -19.265625 C 26.863281 -19.347656 27.128906 -19.453125 27.421875 -19.578125 C 27.753906 -19.742188 28.003906 -19.847656 28.171875 -19.890625 C 28.492188 -20.054688 28.71875 -20.160156 28.84375 -20.203125 C 28.882812 -20.242188 28.976562 -20.289062 29.125 -20.34375 C 29.269531 -20.40625 29.363281 -20.457031 29.40625 -20.5 L 29.953125 -20.6875 Z M 15.3125 -19.890625 C 14.53125 -20.140625 13.644531 -19.890625 12.65625 -19.140625 C 12.738281 -18.984375 12.90625 -18.78125 13.15625 -18.53125 C 13.488281 -18.195312 13.835938 -17.945312 14.203125 -17.78125 C 14.410156 -17.625 14.640625 -17.523438 14.890625 -17.484375 C 15.378906 -17.359375 15.644531 -17.296875 15.6875 -17.296875 C 16.175781 -17.171875 16.671875 -17.109375 17.171875 -17.109375 C 16.878906 -18.671875 16.257812 -19.597656 15.3125 -19.890625 Z M 10.75 -5.5625 C 11.78125 -5.226562 12.867188 -5.644531 14.015625 -6.8125 C 15.171875 -7.988281 16.054688 -9.566406 16.671875 -11.546875 C 16.835938 -12.046875 17.003906 -12.707031 17.171875 -13.53125 C 16.347656 -13.445312 15.707031 -13.425781 15.25 -13.46875 C 15.164062 -13.46875 15.03125 -13.476562 14.84375 -13.5 C 14.664062 -13.519531 14.503906 -13.539062 14.359375 -13.5625 C 14.210938 -13.582031 14.078125 -13.613281 13.953125 -13.65625 C 13.671875 -13.695312 13.238281 -13.796875 12.65625 -13.953125 C 11.957031 -14.160156 11.238281 -14.535156 10.5 -15.078125 C 10.25 -15.234375 10.082031 -15.351562 10 -15.4375 C 9.914062 -15.226562 9.710938 -14.710938 9.390625 -13.890625 C 8.773438 -11.921875 8.597656 -10.117188 8.859375 -8.484375 C 9.128906 -6.859375 9.757812 -5.882812 10.75 -5.5625 Z M 10.75 -5.5625 "/></g></g></g><g fill="#ffffff" fill-opacity="1"><g transform="translate(127.634376, 203.88446)"><g><path d="M 30.890625 -21.1875 L 31.625 -19.890625 C 31.414062 -19.722656 31.128906 -19.515625 30.765625 -19.265625 C 30.722656 -19.222656 30.640625 -19.171875 30.515625 -19.109375 C 30.390625 -19.054688 30.304688 -19.007812 30.265625 -18.96875 L 29.703125 -18.59375 C 29.660156 -18.550781 29.566406 -18.488281 29.421875 -18.40625 C 29.285156 -18.320312 29.175781 -18.257812 29.09375 -18.21875 C 29.007812 -18.175781 28.882812 -18.09375 28.71875 -17.96875 C 28.550781 -17.84375 28.425781 -17.765625 28.34375 -17.734375 C 27.894531 -17.523438 27.628906 -17.378906 27.546875 -17.296875 C 27.460938 -17.210938 27.316406 -17.117188 27.109375 -17.015625 C 26.910156 -16.910156 26.769531 -16.835938 26.6875 -16.796875 C 26.644531 -16.753906 26.570312 -16.703125 26.46875 -16.640625 C 26.363281 -16.578125 26.289062 -16.546875 26.25 -16.546875 C 26.082031 -16.460938 26 -16.421875 26 -16.421875 C 25.957031 -16.421875 25.914062 -16.398438 25.875 -16.359375 C 25.832031 -16.328125 25.789062 -16.3125 25.75 -16.3125 C 25.59375 -16.269531 25.429688 -16.1875 25.265625 -16.0625 C 25.097656 -16.019531 24.929688 -15.9375 24.765625 -15.8125 C 24.316406 -15.601562 23.597656 -15.296875 22.609375 -14.890625 C 21.992188 -14.640625 21.234375 -14.367188 20.328125 -14.078125 C 20.203125 -14.035156 20.023438 -13.984375 19.796875 -13.921875 C 19.566406 -13.859375 19.410156 -13.828125 19.328125 -13.828125 C 19.203125 -13.085938 19.019531 -12.347656 18.78125 -11.609375 C 17.75 -8.398438 16 -5.941406 13.53125 -4.234375 C 11.0625 -2.523438 8.566406 -2.0625 6.046875 -2.84375 C 3.535156 -3.625 1.765625 -5.425781 0.734375 -8.25 C -0.285156 -11.070312 -0.285156 -14.109375 0.734375 -17.359375 C 1.765625 -20.566406 3.515625 -23.023438 5.984375 -24.734375 C 8.460938 -26.441406 10.957031 -26.90625 13.46875 -26.125 C 15.15625 -25.59375 16.53125 -24.507812 17.59375 -22.875 C 18.664062 -21.25 19.285156 -19.367188 19.453125 -17.234375 L 19.640625 -17.234375 C 20.671875 -17.441406 21.367188 -17.585938 21.734375 -17.671875 C 22.066406 -17.710938 22.75 -17.894531 23.78125 -18.21875 C 24.03125 -18.300781 24.195312 -18.363281 24.28125 -18.40625 C 24.519531 -18.488281 24.679688 -18.53125 24.765625 -18.53125 C 24.929688 -18.613281 25.015625 -18.65625 25.015625 -18.65625 C 25.054688 -18.65625 25.097656 -18.664062 25.140625 -18.6875 C 25.179688 -18.707031 25.222656 -18.71875 25.265625 -18.71875 C 25.304688 -18.757812 25.375 -18.800781 25.46875 -18.84375 C 25.570312 -18.882812 25.644531 -18.90625 25.6875 -18.90625 L 26.625 -19.265625 C 26.863281 -19.347656 27.128906 -19.453125 27.421875 -19.578125 C 27.753906 -19.742188 28.003906 -19.847656 28.171875 -19.890625 C 28.492188 -20.054688 28.71875 -20.160156 28.84375 -20.203125 C 28.882812 -20.242188 28.976562 -20.289062 29.125 -20.34375 C 29.269531 -20.40625 29.363281 -20.457031 29.40625 -20.5 L 29.953125 -20.6875 Z M 15.3125 -19.890625 C 14.53125 -20.140625 13.644531 -19.890625 12.65625 -19.140625 C 12.738281 -18.984375 12.90625 -18.78125 13.15625 -18.53125 C 13.488281 -18.195312 13.835938 -17.945312 14.203125 -17.78125 C 14.410156 -17.625 14.640625 -17.523438 14.890625 -17.484375 C 15.378906 -17.359375 15.644531 -17.296875 15.6875 -17.296875 C 16.175781 -17.171875 16.671875 -17.109375 17.171875 -17.109375 C 16.878906 -18.671875 16.257812 -19.597656 15.3125 -19.890625 Z M 10.75 -5.5625 C 11.78125 -5.226562 12.867188 -5.644531 14.015625 -6.8125 C 15.171875 -7.988281 16.054688 -9.566406 16.671875 -11.546875 C 16.835938 -12.046875 17.003906 -12.707031 17.171875 -13.53125 C 16.347656 -13.445312 15.707031 -13.425781 15.25 -13.46875 C 15.164062 -13.46875 15.03125 -13.476562 14.84375 -13.5 C 14.664062 -13.519531 14.503906 -13.539062 14.359375 -13.5625 C 14.210938 -13.582031 14.078125 -13.613281 13.953125 -13.65625 C 13.671875 -13.695312 13.238281 -13.796875 12.65625 -13.953125 C 11.957031 -14.160156 11.238281 -14.535156 10.5 -15.078125 C 10.25 -15.234375 10.082031 -15.351562 10 -15.4375 C 9.914062 -15.226562 9.710938 -14.710938 9.390625 -13.890625 C 8.773438 -11.921875 8.597656 -10.117188 8.859375 -8.484375 C 9.128906 -6.859375 9.757812 -5.882812 10.75 -5.5625 Z M 10.75 -5.5625 "/></g></g></g><g fill="#ffffff" fill-opacity="1"><g transform="translate(148.197876, 203.88446)"><g><path d="M 24.953125 -13.59375 C 24.617188 -12.601562 23.679688 -11.726562 22.140625 -10.96875 C 20.597656 -10.207031 19.226562 -9.804688 18.03125 -9.765625 C 15.976562 -9.722656 14.488281 -10.832031 13.5625 -13.09375 C 12.632812 -15.351562 12.226562 -18.148438 12.34375 -21.484375 C 12.46875 -24.828125 12.675781 -28.367188 12.96875 -32.109375 C 13.257812 -35.859375 13.597656 -39.1875 13.984375 -42.09375 C 14.378906 -45 14.367188 -47.148438 13.953125 -48.546875 C 14.117188 -48.585938 14.347656 -48.628906 14.640625 -48.671875 C 14.929688 -48.710938 15.476562 -48.753906 16.28125 -48.796875 C 17.082031 -48.835938 17.84375 -48.804688 18.5625 -48.703125 C 19.28125 -48.597656 20.070312 -48.359375 20.9375 -47.984375 C 21.800781 -47.617188 22.53125 -47.113281 23.125 -46.46875 C 23.726562 -45.832031 24.203125 -44.9375 24.546875 -43.78125 C 24.898438 -42.632812 25.015625 -41.28125 24.890625 -39.71875 C 24.804688 -38.519531 24.671875 -36.878906 24.484375 -34.796875 C 24.304688 -32.722656 24.164062 -31.046875 24.0625 -29.765625 C 23.957031 -28.492188 23.851562 -26.972656 23.75 -25.203125 C 23.644531 -23.429688 23.59375 -21.988281 23.59375 -20.875 C 23.59375 -19.757812 23.625 -18.644531 23.6875 -17.53125 C 23.75 -16.425781 23.878906 -15.539062 24.078125 -14.875 C 24.285156 -14.21875 24.578125 -13.789062 24.953125 -13.59375 Z M 13.65625 -4.390625 C 13.8125 -4.472656 14.023438 -4.570312 14.296875 -4.6875 C 14.566406 -4.8125 15.09375 -4.976562 15.875 -5.1875 C 16.65625 -5.394531 17.382812 -5.519531 18.0625 -5.5625 C 18.738281 -5.601562 19.476562 -5.488281 20.28125 -5.21875 C 21.09375 -4.945312 21.753906 -4.484375 22.265625 -3.828125 C 22.773438 -3.171875 23.164062 -2.140625 23.4375 -0.734375 C 23.707031 0.660156 23.738281 2.347656 23.53125 4.328125 C 21.757812 4.691406 20.253906 4.894531 19.015625 4.9375 C 17.785156 4.976562 16.835938 4.863281 16.171875 4.59375 C 15.515625 4.332031 15.019531 3.984375 14.6875 3.546875 C 14.363281 3.117188 14.160156 2.5625 14.078125 1.875 C 13.992188 1.195312 13.960938 0.539062 13.984375 -0.09375 C 14.003906 -0.726562 13.992188 -1.457031 13.953125 -2.28125 C 13.910156 -3.101562 13.8125 -3.804688 13.65625 -4.390625 Z M 13.65625 -4.390625 "/></g></g></g><g clip-path="url(#4f702a602b)"><path fill="#ffffff" d="M 178.320312 171.414062 L 307.414062 171.414062 L 307.414062 206.351562 L 178.320312 206.351562 Z M 178.320312 171.414062 " fill-opacity="1" fill-rule="nonzero"/></g><g fill="#6366f1" fill-opacity="1"><g transform="translate(181.532597, 201.698939)"><g><path d="M 3.578125 0.109375 L 2.953125 -0.3125 L 2.609375 -1.375 L 2.546875 -3.125 L 2.609375 -3.8125 L 2.546875 -4.546875 L 2.578125 -5.09375 L 2.515625 -6.5 L 2.609375 -7.90625 L 2.546875 -8.53125 L 2.578125 -9.875 L 2.46875 -10.625 L 2.609375 -12.03125 L 2.515625 -12.625 L 2.578125 -16.84375 L 2.46875 -17.546875 L 2.578125 -18.234375 L 2.515625 -22.421875 L 2.578125 -23 L 2.890625 -23.65625 L 3.578125 -24.109375 L 4.328125 -24.140625 L 5.015625 -24.078125 L 5.671875 -24.109375 L 7.390625 -23.9375 L 8.390625 -23.625 L 8.84375 -23.078125 L 8.765625 -21.671875 L 8.796875 -20.59375 L 8.734375 -19.78125 L 8.796875 -19.15625 L 8.84375 -16.671875 L 8.796875 -16.03125 L 8.96875 -15.296875 L 9.5625 -14.890625 L 10.3125 -14.890625 L 11 -15.09375 L 11.765625 -15.203125 L 12.375 -15.46875 L 13.578125 -16.328125 L 14.375 -17.4375 L 14.578125 -18.15625 L 14.78125 -18.671875 L 15.0625 -20.90625 L 15.03125 -21.59375 L 15.125 -22.25 L 15.125 -23 L 15.40625 -23.65625 L 16.125 -24.078125 L 17.15625 -24.109375 L 18.1875 -23.96875 L 19.328125 -24.109375 L 20.359375 -24 L 21.109375 -23.6875 L 21.421875 -23 L 21.328125 -20.875 L 21.390625 -20.1875 L 21.15625 -17.984375 L 20.5625 -15.984375 L 20.328125 -15.375 L 19.8125 -14.484375 L 18.703125 -13.0625 L 17.640625 -12.171875 L 17.203125 -11.453125 L 17.328125 -10.65625 L 18.46875 -8.84375 L 18.75 -8.25 L 19.125 -7.59375 L 19.5 -7.125 L 20.5625 -5.359375 L 21.015625 -4.8125 L 23.140625 -0.921875 L 22.96875 -0.171875 L 22.25 0 L 21.5625 -0.03125 L 20.9375 0.03125 L 17.46875 0.0625 L 16.671875 -0.28125 L 16.03125 -0.921875 L 15.6875 -1.375 L 15.34375 -2.03125 L 14.921875 -2.546875 L 14.265625 -3.8125 L 13.96875 -4.296875 L 13.71875 -4.890625 L 12.3125 -7.1875 L 12.078125 -7.90625 L 11.734375 -8.453125 L 10.9375 -9.046875 L 10 -9.109375 L 9.140625 -8.734375 L 8.765625 -8.15625 L 8.875 -4.546875 L 8.765625 -3.8125 L 8.84375 -1.0625 L 8.453125 -0.3125 L 7.765625 -0.03125 L 6.671875 0.0625 L 5.703125 0 Z M 3.578125 0.109375 "/></g></g></g><g fill="#6366f1" fill-opacity="1"><g transform="translate(208.355571, 201.698939)"><g><path d="M 2.578125 -1.40625 L 2.578125 -6.5 L 2.515625 -7.1875 L 2.546875 -9.96875 L 2.609375 -10.625 L 2.546875 -11.28125 L 2.546875 -11.96875 L 2.515625 -12.71875 L 2.609375 -14.09375 L 2.546875 -14.78125 L 2.515625 -22.65625 L 2.921875 -23.625 L 3.546875 -23.96875 L 5.578125 -24.140625 L 6.328125 -24.109375 L 7.015625 -23.96875 L 7.703125 -23.96875 L 8.328125 -24.140625 L 9.015625 -24.140625 L 9.703125 -24 L 11.765625 -24 L 12.765625 -24.078125 L 13.859375 -24.046875 L 15.8125 -23.59375 L 17.125 -23.140625 L 18.328125 -22.484375 L 20.296875 -20.421875 L 20.671875 -19.875 L 20.9375 -19.296875 L 21.5625 -17.328125 L 21.671875 -16.640625 L 21.734375 -14.484375 L 21.28125 -12.484375 L 19.953125 -10.078125 L 19.46875 -9.65625 L 18.984375 -9.140625 L 18.671875 -8.390625 L 18.703125 -7.5625 L 19.125 -7.046875 L 20.21875 -5.265625 L 20.53125 -4.640625 L 21.703125 -2.890625 L 21.96875 -2.234375 L 22.390625 -1.75 L 22.765625 -1 L 22.5625 -0.234375 L 21.90625 0.0625 L 20.765625 0.109375 L 20.125 0.03125 L 17.40625 0.0625 L 16.234375 -0.234375 L 15.46875 -0.859375 L 15.09375 -1.4375 L 14.828125 -2.125 L 14.4375 -2.640625 L 13.796875 -3.890625 L 13.0625 -4.921875 L 12.796875 -5.53125 L 12.375 -6.21875 L 11.6875 -6.8125 L 9.703125 -7.078125 L 9.046875 -6.703125 L 8.734375 -6.015625 L 8.671875 -3.8125 L 8.765625 -3.09375 L 8.703125 -2.46875 L 8.703125 -1.3125 L 8.390625 -0.3125 L 7.296875 0.03125 L 6.265625 0.03125 L 5.703125 0.109375 L 4.609375 0 L 3.921875 0.109375 L 2.921875 -0.34375 Z M 9.703125 -12.59375 L 10.453125 -12.65625 L 12.109375 -12.59375 L 12.765625 -12.625 L 13.75 -12.859375 L 14.375 -13.140625 L 14.75 -13.453125 L 15.125 -13.96875 L 15.4375 -14.65625 L 15.546875 -15.6875 L 15.40625 -16.578125 L 15.203125 -17.125 L 14.34375 -18.1875 L 13.6875 -18.359375 L 12.796875 -18.4375 L 11.828125 -18.640625 L 10.453125 -18.5 L 9.765625 -18.53125 L 9.046875 -18.265625 L 8.734375 -17.609375 L 8.671875 -16.15625 L 8.734375 -15.578125 L 8.734375 -13.515625 L 9.015625 -12.96875 Z M 9.703125 -12.59375 "/></g></g></g><g fill="#6366f1" fill-opacity="1"><g transform="translate(235.212934, 201.698939)"><g><path d="M 20.296875 0.0625 L 19.5625 0 L 18.78125 -0.34375 L 18.09375 -0.859375 L 17.890625 -1.484375 L 17.578125 -2.125 L 16.921875 -2.6875 L 16.15625 -3.0625 L 15.40625 -2.953125 L 14.78125 -3.03125 L 11.421875 -2.984375 L 10.796875 -3.09375 L 9.359375 -2.953125 L 8.703125 -3.0625 L 7.984375 -2.6875 L 7.328125 -2.03125 L 6.703125 -0.890625 L 6.046875 -0.28125 L 5.265625 -0.03125 L 3.328125 0.03125 L 2.640625 -0.03125 L 1.3125 0.03125 L 0.625 -0.171875 L 0.453125 -1.03125 L 0.65625 -1.71875 L 1.34375 -3.09375 L 1.515625 -3.71875 L 1.890625 -4.203125 L 2.40625 -5.578125 L 3.03125 -6.671875 L 3.265625 -7.359375 L 3.609375 -7.875 L 3.8125 -8.625 L 7.328125 -15.984375 L 7.53125 -16.609375 L 7.90625 -17.265625 L 8.078125 -17.953125 L 8.453125 -18.46875 L 9.828125 -21.625 L 10.140625 -22.109375 L 10.390625 -22.796875 L 10.703125 -23.390625 L 11.3125 -23.96875 L 12.421875 -24.34375 L 13.546875 -24 L 14.140625 -23.390625 L 14.78125 -22.1875 L 15 -21.5625 L 15.375 -20.9375 L 15.578125 -20.25 L 17.84375 -15.46875 L 18.09375 -14.75 L 18.8125 -13.484375 L 19.015625 -12.9375 L 19.328125 -12.421875 L 19.53125 -11.65625 L 19.875 -11 L 20.21875 -10.484375 L 21.53125 -7.359375 L 22.21875 -6.125 L 22.703125 -4.84375 L 23.625 -3.0625 L 24.140625 -1.78125 L 24.390625 -1 L 24.28125 -0.171875 L 23.3125 0 L 22.25 0.03125 L 21.59375 -0.03125 Z M 12.484375 -8.5 L 13.859375 -8.53125 L 14.375 -8.796875 L 14.515625 -9.421875 L 12.890625 -13.203125 L 12.421875 -13.484375 L 12.03125 -13.171875 L 10.421875 -9.453125 L 10.453125 -8.796875 L 11 -8.5625 L 11.796875 -8.625 Z M 12.484375 -8.5 "/></g></g></g><g fill="#6366f1" fill-opacity="1"><g transform="translate(263.170677, 201.698939)"><g><path d="M 2.515625 -1 L 2.46875 -11.3125 L 2.546875 -12.109375 L 2.46875 -12.765625 L 2.515625 -13.40625 L 2.578125 -14.03125 L 2.515625 -14.828125 L 2.578125 -15.4375 L 2.546875 -16.15625 L 2.46875 -16.75 L 2.609375 -20.59375 L 2.515625 -21.625 L 2.609375 -23.046875 L 2.8125 -23.65625 L 3.578125 -24.046875 L 4.546875 -24 L 5.265625 -24.078125 L 7.015625 -24.078125 L 7.640625 -24 L 8.96875 -24 L 10.046875 -24.078125 L 10.734375 -24.046875 L 11.765625 -24.109375 L 12.375 -24.046875 L 13.71875 -24.109375 L 14.484375 -24 L 16.546875 -24.046875 L 17.125 -23.65625 L 17.546875 -22.625 L 17.46875 -21.328125 L 17.546875 -19.5625 L 17.203125 -18.875 L 16.5 -18.53125 L 13.890625 -18.609375 L 13.171875 -18.53125 L 12.484375 -18.578125 L 11.859375 -18.53125 L 10.875 -18.609375 L 9.765625 -18.609375 L 9.109375 -18.15625 L 8.765625 -17.46875 L 8.84375 -15.921875 L 8.765625 -15.265625 L 8.765625 -14.3125 L 9.140625 -13.578125 L 9.828125 -13.3125 L 10.59375 -13.34375 L 11.9375 -13.171875 L 13.75 -13.3125 L 15.4375 -13.234375 L 16.15625 -12.96875 L 16.5 -12.28125 L 16.546875 -9.21875 L 16.203125 -8.15625 L 15.46875 -7.8125 L 14.0625 -7.734375 L 13.375 -7.8125 L 12.65625 -7.765625 L 11.96875 -7.84375 L 11.28125 -7.703125 L 10.5625 -7.84375 L 9.796875 -7.765625 L 9.109375 -7.46875 L 8.796875 -6.78125 L 8.84375 -3.125 L 8.765625 -2.46875 L 8.875 -1.375 L 8.453125 -0.34375 L 7.734375 -0.03125 L 6.015625 0.109375 L 3.609375 0 L 2.859375 -0.34375 Z M 2.515625 -1 "/></g></g></g><g fill="#6366f1" fill-opacity="1"><g transform="translate(284.904414, 201.698939)"><g><path d="M 8.96875 0.0625 L 7.90625 0.03125 L 6.90625 -0.3125 L 6.46875 -1.0625 L 6.53125 -1.71875 L 6.5625 -3.71875 L 6.5 -4.4375 L 6.53125 -7.21875 L 6.609375 -7.90625 L 6.5 -13.03125 L 6.5625 -14 L 6.53125 -14.6875 L 6.5625 -15.4375 L 6.5 -16.40625 L 6.5625 -17.5 L 6.1875 -18.1875 L 5.53125 -18.53125 L 2.265625 -18.609375 L 1.578125 -18.53125 L 0.96875 -18.875 L 0.65625 -19.5 L 0.578125 -20.5625 L 0.65625 -22.28125 L 0.625 -22.96875 L 1.03125 -23.765625 L 1.6875 -24.109375 L 4.09375 -23.96875 L 5.15625 -24.078125 L 7.1875 -23.96875 L 7.8125 -24.109375 L 8.5625 -24.046875 L 9.28125 -24.140625 L 9.9375 -24.109375 L 10.625 -23.96875 L 13.40625 -24.109375 L 14.0625 -24.046875 L 14.78125 -24.140625 L 15.4375 -24.078125 L 17.578125 -24.078125 L 18.234375 -23.625 L 18.609375 -22.9375 L 18.578125 -19.671875 L 18.15625 -18.921875 L 17.578125 -18.53125 L 16.953125 -18.578125 L 16.234375 -18.46875 L 14.953125 -18.640625 L 13.625 -18.578125 L 12.96875 -18.15625 L 12.6875 -17.125 L 12.59375 -14.140625 L 12.6875 -13.40625 L 12.625 -7.875 L 12.71875 -7.125 L 12.65625 -6.5 L 12.6875 -5.125 L 12.625 -4.40625 L 12.71875 -3.09375 L 12.625 -1.3125 L 12.28125 -0.34375 L 11.28125 0 Z M 8.96875 0.0625 "/></g></g></g></svg>